<svg width="30" height="24" viewBox="0 0 30 24" fill="none" xmlns="http://www.w3.org/2000/svg">
<path d="M22.4887 0C19.9314 0 17.1774 0.576749 15.2758 2.16281C13.3743 0.576749 10.6202 0 8.06294 0C6.16136 0 4.14174 0.317212 2.44999 1.13908C1.49264 1.6149 0.850037 2.63863 0.850037 3.80655V20.0709C0.850037 21.9453 2.44999 23.3295 4.1024 22.8681C5.38761 22.5076 6.7515 22.349 8.06294 22.349C10.1088 22.349 12.2858 22.7239 14.0431 23.6756C14.83 24.1081 15.7217 24.1081 16.4955 23.6756C18.2528 22.7095 20.4298 22.349 22.4756 22.349C23.7871 22.349 25.151 22.5076 26.4362 22.8681C28.0886 23.3439 29.6885 21.9597 29.6885 20.0709V3.80655C29.6885 2.63863 29.0459 1.6149 28.0886 1.13908C26.4099 0.317212 24.3903 0 22.4887 0ZM27.0788 18.355C27.0788 19.2634 26.3181 19.9267 25.505 19.7681C24.5215 19.5662 23.4986 19.4797 22.4887 19.4797C20.2593 19.4797 17.0463 20.4169 15.2758 21.6425V5.04656C17.0463 3.82096 20.2593 2.88375 22.4887 2.88375C23.6953 2.88375 24.8887 3.01352 26.0296 3.28747C26.6329 3.43166 27.0788 4.02283 27.0788 4.70051V18.355Z" fill="#F8F8F8"/>
<path d="M17.8725 9.3868C17.4528 9.3868 17.0725 9.09843 16.9413 8.63703C16.7708 8.0747 17.0594 7.45469 17.5708 7.28167C19.5904 6.56073 22.2002 6.33003 24.6001 6.63283C25.1378 6.70492 25.5312 7.23841 25.4657 7.82958C25.4001 8.42075 24.9149 8.85331 24.3772 8.78122C22.2527 8.50726 19.9314 8.72354 18.1741 9.34355C18.0692 9.35797 17.9643 9.3868 17.8725 9.3868Z" fill="#F8F8F8"/>
<path d="M17.8725 13.2223C17.4528 13.2223 17.0725 12.9339 16.9413 12.4725C16.7708 11.9101 17.0594 11.2901 17.5708 11.1171C19.5773 10.3962 22.2002 10.1655 24.6001 10.4683C25.1378 10.5404 25.5312 11.0739 25.4657 11.665C25.4001 12.2562 24.9149 12.6888 24.3772 12.6167C22.2527 12.3427 19.9314 12.559 18.1741 13.179C18.0692 13.2078 17.9643 13.2223 17.8725 13.2223Z" fill="#F8F8F8"/>
<path d="M17.8725 17.0575C17.4528 17.0575 17.0725 16.7691 16.9413 16.3077C16.7708 15.7454 17.0594 15.1253 17.5708 14.9523C19.5773 14.2314 22.2002 14.0007 24.6001 14.3035C25.1378 14.3756 25.5312 14.9091 25.4657 15.5002C25.4001 16.0914 24.9149 16.5095 24.3772 16.4519C22.2527 16.1779 19.9314 16.3942 18.1741 17.0142C18.0692 17.043 17.9643 17.0575 17.8725 17.0575Z" fill="#F8F8F8"/>
</svg>
