<svg width="42" height="35" viewBox="0 0 42 35" fill="none" xmlns="http://www.w3.org/2000/svg">
<path d="M21 19.2734C23.6582 19.2734 26.2942 19.5374 28.9072 20.0645L29.8857 20.2744C31.8407 20.719 33.7808 21.3116 35.7061 22.0508L36.667 22.4326L36.6768 22.4355H36.6758C37.9474 22.9723 38.9952 23.7553 39.7852 24.793C40.5814 25.839 41 27.0109 41 28.2842C41 31.4408 38.4408 34 35.2842 34H6.71582C3.55919 34 1 31.4408 1 28.2842C1.00005 27.0109 1.41858 25.839 2.21484 24.793L2.36621 24.6016C3.1368 23.6586 4.13199 22.9388 5.32422 22.4355L5.33301 22.4316C7.89305 21.3809 10.48 20.5915 13.0928 20.0645L14.0732 19.8789C16.3648 19.4753 18.674 19.2734 21 19.2734ZM21 1C23.6537 1 25.9738 1.79736 27.9043 3.41406H27.9033C29.8389 5.03423 30.8662 7.05163 30.8662 9.42383C30.8662 11.6477 29.9635 13.5595 28.2559 15.125L27.9033 15.4336C25.9729 17.0498 23.6535 17.8477 21 17.8477C18.5121 17.8477 16.3182 17.1461 14.4629 15.7266L14.0967 15.4336C12.1612 13.8131 11.1338 11.7959 11.1338 9.42383C11.1338 7.05177 12.1604 5.03418 14.0957 3.41406L14.4629 3.12109C16.3181 1.70132 18.5121 1 21 1Z" fill="#B0C4B1" stroke="#D08C4F" stroke-width="2"/>
</svg>
